HIERARCHY
ROOT joint_Root
{
	OFFSET 0.0 0.0 0.0
	CHANNELS 6 Xposition Yposition Zposition Zrotation Xrotation Yrotation 
	JOINT Hips
	{
		OFFSET -17.1583 93.1646 452.98
		CHANNELS 6 Xposition Yposition Zposition Zrotation Xrotation Yrotation 
		JOINT Spine
		{
			OFFSET 15.7357 0.0 0.0
			CHANNELS 6 Xposition Yposition Zposition Zrotation Xrotation Yrotation 
			JOINT Chest
			{
				OFFSET 8.98455 -0.406207 0.0
				CHANNELS 6 Xposition Yposition Zposition Zrotation Xrotation Yrotation 
				JOINT Neck
				{
					OFFSET 16.3773 0.0 0.0
					CHANNELS 6 Xposition Yposition Zposition Zrotation Xrotation Yrotation 
					JOINT Head
					{
						OFFSET 6.45672 0.0 0.0
						CHANNELS 6 Xposition Yposition Zposition Zrotation Xrotation Yrotation 
						End Site
						{
							OFFSET 0.0 0.0 0.0
						}
					}
				}
				JOINT Shoulder_L
				{
					OFFSET 12.9942 -0.242716 4.98039
					CHANNELS 6 Xposition Yposition Zposition Zrotation Xrotation Yrotation 
					JOINT UpperArm_L
					{
						OFFSET 5.34809 0.0 0.0
						CHANNELS 6 Xposition Yposition Zposition Zrotation Xrotation Yrotation 
						JOINT LowerArm_L
						{
							OFFSET 24.3286 1.87007e-05 0.0
							CHANNELS 6 Xposition Yposition Zposition Zrotation Xrotation Yrotation 
							JOINT Hand_L
							{
								OFFSET 22.2916 0.0 0.0
								CHANNELS 6 Xposition Yposition Zposition Zrotation Xrotation Yrotation 
								End Site
								{
									OFFSET 0.0 0.0 0.0
								}
							}
						}
					}
				}
				JOINT Shoulder_R
				{
					OFFSET 12.9945 -0.242716 -4.98039
					CHANNELS 6 Xposition Yposition Zposition Zrotation Xrotation Yrotation 
					JOINT UpperArm_R
					{
						OFFSET -5.34813 0.0 0.0
						CHANNELS 6 Xposition Yposition Zposition Zrotation Xrotation Yrotation 
						JOINT LowerArm_R
						{
							OFFSET -24.3289 0.000322201 0.0
							CHANNELS 6 Xposition Yposition Zposition Zrotation Xrotation Yrotation 
							JOINT Hand_R
							{
								OFFSET -22.2915 -0.000108084 0.0
								CHANNELS 6 Xposition Yposition Zposition Zrotation Xrotation Yrotation 
								End Site
								{
									OFFSET 0.0 0.0 0.0
								}
							}
						}
					}
				}
			}
		}
		JOINT UpperLeg_L
		{
			OFFSET -2.19248 -6.46944 0.0
			CHANNELS 6 Xposition Yposition Zposition Zrotation Xrotation Yrotation 
			JOINT LowerLeg_L
			{
				OFFSET 39.0811 0.0 -1.23785e-05
				CHANNELS 6 Xposition Yposition Zposition Zrotation Xrotation Yrotation 
				JOINT Foot_L
				{
					OFFSET 40.9854 0.0 -1.26872e-05
					CHANNELS 6 Xposition Yposition Zposition Zrotation Xrotation Yrotation 
					JOINT Toes_L
					{
						OFFSET 11.7543 0.0 0.0
						CHANNELS 6 Xposition Yposition Zposition Zrotation Xrotation Yrotation 
						End Site
						{
							OFFSET 0.0 0.0 0.0
						}
					}
				}
			}
		}
		JOINT UpperLeg_R
		{
			OFFSET -2.19251 6.46944 0.0
			CHANNELS 6 Xposition Yposition Zposition Zrotation Xrotation Yrotation 
			JOINT LowerLeg_R
			{
				OFFSET -39.0811 -0.00228153 -0.0401928
				CHANNELS 6 Xposition Yposition Zposition Zrotation Xrotation Yrotation 
				JOINT Foot_R
				{
					OFFSET -40.9854 0.0 0.0
					CHANNELS 6 Xposition Yposition Zposition Zrotation Xrotation Yrotation 
					JOINT Toes_R
					{
						OFFSET -11.7543 0.0 0.0
						CHANNELS 6 Xposition Yposition Zposition Zrotation Xrotation Yrotation 
						End Site
						{
							OFFSET 0.0 0.0 0.0
						}
					}
				}
			}
		}
	}
}
MOTION
Frames:	6
Frame Time:	0.0333333
0.000000 0.000000 0.000000 0.000000 0.000000 -0.000000 -2.066230 92.737600 0.018651 87.426900 1.413140 1.342380 15.735700 0.000005 -0.000001 77.982500 86.648200 -76.334200 8.984550 -0.406207 -0.000000 -1.185420 -1.524170 3.279820 16.377300 -0.000001 -0.000001 4.016750 2.226430 -3.099780 6.456720 -0.000001 -0.000000 -1.833680 1.081040 -0.347286 12.994200 -0.242716 4.980390 -92.722900 8.016990 -71.170100 5.348090 -0.000007 -0.000001 -73.353800 13.916000 0.215647 24.328600 0.000019 0.000005 12.011200 25.130100 -26.610600 22.291600 -0.000001 0.000005 2.496580 4.900790 9.362060 12.994500 -0.242716 -4.980390 88.282600 5.733810 -73.295100 -5.348130 -0.000001 -0.000004 -70.056600 30.452200 -5.115820 -24.328900 0.000322 -0.000009 1.636820 5.691520 -16.083600 -22.291500 -0.000108 -0.000004 2.030250 5.243600 1.601340 -2.192480 -6.469440 -0.000000 -175.601000 2.116400 -2.395110 39.081100 -0.000007 -0.000012 0.205524 -0.558993 20.187300 40.985400 -0.000006 -0.000013 1.854620 10.812200 -72.628100 11.754300 -0.000000 0.000003 0.000126 0.165478 -9.865230 -2.192510 6.469440 -0.000001 -174.687000 7.890870 -177.352000 -39.081100 -0.002282 -0.040193 0.050537 -0.218334 12.199200 -40.985400 0.000008 0.000006 1.874850 2.055490 -69.430300 -11.754300 -0.000006 -0.000006 -0.008510 0.259811 -6.020840
0.000000 0.000000 0.000000 0.000000 0.000000 -0.000000 -2.137140 92.742200 -0.040601 87.462600 1.435870 1.387120 15.735700 0.000005 -0.000001 77.547500 86.630200 -75.891200 8.984550 -0.406207 -0.000000 -1.160090 -1.581900 3.295370 16.377300 -0.000001 -0.000001 4.002970 2.234570 -3.241300 6.456720 -0.000001 -0.000000 -1.873440 1.058010 -0.220534 12.994200 -0.242716 4.980390 -92.718500 8.024750 -71.215500 5.348090 -0.000007 -0.000001 -72.782000 11.889800 -0.079467 24.328600 0.000019 0.000005 11.967900 24.874600 -26.745000 22.291600 -0.000001 0.000005 2.832480 4.899560 9.386570 12.994500 -0.242716 -4.980390 88.301700 5.675050 -73.309700 -5.348130 -0.000001 -0.000004 -70.037100 30.557600 -5.222220 -24.328900 0.000322 -0.000009 1.627430 5.646680 -16.116200 -22.291500 -0.000108 -0.000004 1.940100 5.243160 1.612870 -2.192480 -6.469440 -0.000000 -175.563000 2.043980 -2.379060 39.081100 -0.000007 -0.000012 0.200046 -0.545382 20.143400 40.985400 -0.000006 -0.000013 1.810090 10.938300 -72.528400 11.754300 -0.000000 0.000003 0.000127 0.165467 -9.865680 -2.192510 6.469440 -0.000001 -174.679000 7.965670 -177.366000 -39.081100 -0.002282 -0.040193 0.050889 -0.219226 12.238900 -40.985400 0.000008 0.000006 1.895120 2.088820 -69.422300 -11.754300 -0.000006 -0.000006 -0.008426 0.259143 -6.048140
0.000000 0.000000 0.000000 0.000000 0.000000 -0.000000 -2.208910 92.739000 -0.075481 87.499200 1.405680 1.508370 15.735700 0.000005 -0.000001 77.356700 86.591200 -75.687200 8.984550 -0.406207 -0.000000 -1.087930 -1.620880 3.322360 16.377300 -0.000001 -0.000001 4.012200 2.249270 -3.424370 6.456720 -0.000001 -0.000000 -1.915740 1.055710 -0.245999 12.994200 -0.242716 4.980390 -92.723000 8.020720 -71.177900 5.348090 -0.000007 -0.000001 -72.079500 9.519360 -0.402964 24.328600 0.000019 0.000005 11.833900 24.161300 -27.108400 22.291600 -0.000001 0.000005 3.417700 4.882320 9.728560 12.994500 -0.242716 -4.980390 88.328400 5.599630 -73.348800 -5.348130 -0.000001 -0.000004 -70.031400 30.676500 -5.319240 -24.328900 0.000322 -0.000009 1.583060 5.472480 -16.171300 -22.291500 -0.000108 -0.000004 1.907780 5.246010 1.538060 -2.192480 -6.469440 -0.000000 -175.555000 1.954210 -2.278230 39.081100 -0.000007 -0.000012 0.203395 -0.553957 20.162000 40.985400 -0.000006 -0.000013 1.777680 11.012800 -72.595400 11.754300 -0.000000 0.000003 -0.000022 0.167992 -9.763110 -2.192510 6.469440 -0.000001 -174.656000 7.872680 -177.298000 -39.081100 -0.002282 -0.040193 0.052505 -0.225627 12.294200 -40.985400 0.000008 0.000006 2.011370 1.949570 -69.438200 -11.754300 -0.000006 -0.000006 -0.008416 0.259065 -6.051310
0.000000 0.000000 0.000000 0.000000 0.000000 -0.000000 -2.287100 92.732500 -0.134690 87.506400 1.393450 1.658990 15.735700 0.000005 -0.000001 77.262900 86.545300 -75.564900 8.984550 -0.406207 -0.000000 -0.999888 -1.652900 3.380350 16.377300 -0.000001 -0.000001 3.996090 2.216950 -3.507950 6.456720 -0.000001 -0.000000 -1.902750 1.051230 -0.483237 12.994200 -0.242716 4.980390 -92.735500 8.065260 -71.193700 5.348090 -0.000007 -0.000001 -71.333800 6.252280 -0.570424 24.328600 0.000019 0.000005 11.992800 23.364300 -28.175600 22.291600 -0.000001 0.000005 4.648510 4.857810 10.209000 12.994500 -0.242716 -4.980390 88.367100 5.474370 -73.363300 -5.348130 -0.000001 -0.000004 -70.053600 30.740500 -5.401750 -24.328900 0.000322 -0.000009 1.599600 5.499190 -16.256300 -22.291500 -0.000108 -0.000004 1.840200 5.246320 1.529870 -2.192480 -6.469440 -0.000000 -175.500000 1.961770 -2.203940 39.081100 -0.000007 -0.000012 0.200850 -0.545182 20.224600 40.985400 -0.000006 -0.000013 1.713830 11.026000 -72.551000 11.754300 -0.000000 0.000003 0.000110 0.165746 -9.854330 -2.192510 6.469440 -0.000001 -174.605000 7.767960 -177.251000 -39.081100 -0.002282 -0.040193 0.054266 -0.231232 12.421700 -40.985400 0.000008 0.000006 2.042160 1.868560 -69.470400 -11.754300 -0.000006 -0.000006 -0.008385 0.258816 -6.061490
0.000000 0.000000 0.000000 0.000000 0.000000 -0.000000 -2.379470 92.725500 -0.200743 87.524300 1.372340 1.790370 15.735700 0.000005 -0.000001 77.303500 86.510300 -75.581500 8.984550 -0.406207 -0.000000 -0.930042 -1.664270 3.429170 16.377300 -0.000001 -0.000001 3.992220 2.226760 -3.581580 6.456720 -0.000001 -0.000000 -1.886790 1.054170 -0.701384 12.994200 -0.242716 4.980390 -92.741900 8.064180 -71.150700 5.348090 -0.000007 -0.000001 -70.623000 2.650360 -0.646639 24.328600 0.000019 0.000005 12.191500 22.059400 -29.910700 22.291600 -0.000001 0.000005 6.477920 4.824520 10.850900 12.994500 -0.242716 -4.980390 88.419300 5.315870 -73.413200 -5.348130 -0.000001 -0.000004 -70.143400 30.653900 -5.414170 -24.328900 0.000322 -0.000009 1.611130 5.502380 -16.358300 -22.291500 -0.000108 -0.000004 1.895850 5.245800 1.543470 -2.192480 -6.469440 -0.000000 -175.440000 1.904070 -2.141330 39.081100 -0.000007 -0.000012 0.201686 -0.545598 20.287700 40.985400 -0.000006 -0.000013 1.666190 11.151400 -72.574800 11.754300 -0.000000 0.000003 0.000192 0.164328 -9.911920 -2.192510 6.469440 -0.000001 -174.540000 7.715980 -177.183000 -39.081100 -0.002282 -0.040193 0.056438 -0.240137 12.469600 -40.985400 0.000008 0.000006 2.294720 1.755200 -69.532800 -11.754300 -0.000006 -0.000006 -0.008637 0.260821 -5.979570
0.000000 0.000000 0.000000 0.000000 0.000000 -0.000000 -2.481950 92.713500 -0.267984 87.519300 1.362570 1.889000 15.735700 0.000005 -0.000001 77.501200 86.501000 -75.751800 8.984550 -0.406207 -0.000000 -0.906402 -1.646500 3.484460 16.377300 -0.000001 -0.000001 4.013680 2.171490 -3.605810 6.456720 -0.000001 -0.000000 -1.803970 0.978389 -0.872436 12.994200 -0.242716 4.980390 -92.723700 8.012200 -71.154400 5.348090 -0.000007 -0.000001 -69.994300 -1.429120 -0.561000 24.328600 0.000019 0.000005 12.884700 20.740900 -32.859700 22.291600 -0.000001 0.000005 8.294120 4.773470 11.813300 12.994500 -0.242716 -4.980390 88.466600 5.163850 -73.436400 -5.348130 -0.000001 -0.000004 -70.212600 30.523700 -5.390490 -24.328900 0.000322 -0.000009 1.631010 5.547710 -16.421600 -22.291500 -0.000108 -0.000004 1.842420 5.244570 1.575880 -2.192480 -6.469440 -0.000000 -175.357000 1.808030 -2.162540 39.081100 -0.000007 -0.000012 0.203459 -0.546355 20.425300 40.985400 -0.000006 -0.000013 1.605030 11.207300 -72.604600 11.754300 -0.000000 0.000003 0.000099 0.165947 -9.846160 -2.192510 6.469440 -0.000001 -174.456000 7.734860 -177.184000 -39.081100 -0.002282 -0.040193 0.058982 -0.249522 12.572300 -40.985400 0.000008 0.000006 2.457460 1.731680 -69.545600 -11.754300 -0.000006 -0.000006 -0.008332 0.258389 -6.078920
